<?xml version="1.0" encoding="utf-8"?>
<!-- Generator: Adobe Illustrator 24.3.0, SVG Export Plug-In . SVG Version: 6.00 Build 0)  -->
<svg version="1.1" id="Livello_1" xmlns="http://www.w3.org/2000/svg" xmlns:xlink="http://www.w3.org/1999/xlink" x="0px" y="0px"
	 viewBox="0 0 180 31" style="enable-background:new 0 0 180 31;" xml:space="preserve">
<style type="text/css">
	.st0{fill-rule:evenodd;clip-rule:evenodd;fill:#D13A47;}
</style>
<g id="XMLID_68_">
	<path id="XMLID_82_" class="st0" d="M4.56,4.73h4.83c5.94,0,10.52,3.96,10.52,10.69c0,7.43-3.92,10.86-11.02,10.86H4.56V4.73z
		 M0.44,29.91h8.5c9.49,0,15.35-5,15.35-14.65c0-8.87-6.81-14.16-15.35-14.16h-8.5V29.91z"/>
	<rect id="XMLID_81_" x="30.47" y="1.09" class="st0" width="4.13" height="28.81"/>
	<path id="XMLID_78_" class="st0" d="M58.81,19.26H47.34l5.74-14.28L58.81,19.26z M38.75,29.91h4.33l2.93-7.26h14.12l2.93,7.26h4.5
		L55.39,1.09h-4.33L38.75,29.91z"/>
	<path id="XMLID_75_" class="st0" d="M75.6,4.73h3.96c3.8,0,5.78,1.65,5.78,4.25c0,2.76-2.31,4.5-6.23,4.5H75.6V4.73z M71.47,29.91
		h4.13v-12.8h2.48c2.19,0,3.55,0,4.83,2.81l4.42,9.99h4.71l-5.45-11.47c-0.91-1.78-1.53-2.39-2.81-2.89v-0.08
		c3.34-0.58,5.94-3.05,5.94-6.56c0-6.89-5.49-7.8-11.19-7.8h-7.06V29.91z"/>
	<path id="XMLID_72_" class="st0" d="M96.67,29.91h4.13V18.39h4.05c5.2,0,10.2-2.27,10.2-8.67c0-6.56-4.91-8.63-10.81-8.63h-7.55
		V29.91z M100.8,4.73h3.51c2.56,0,6.36,1.32,6.36,4.95c0,3.8-3.22,5.08-5.78,5.08h-4.09V4.73z"/>
	<polygon id="XMLID_71_" class="st0" points="120.06,29.91 136.2,29.91 136.2,26.27 124.19,26.27 124.19,16.78 135.13,16.78 
		135.13,13.15 124.19,13.15 124.19,4.73 136.2,4.73 136.2,1.09 120.06,1.09 	"/>
	<polygon id="XMLID_70_" class="st0" points="142.75,29.91 158.93,29.91 158.93,26.27 146.87,26.27 146.87,1.09 142.75,1.09 	"/>
	<polygon id="XMLID_69_" class="st0" points="163.38,29.91 179.56,29.91 179.56,26.27 167.51,26.27 167.51,1.09 163.38,1.09 	"/>
</g>
</svg>
